PathFileType	4	(X/Y/Z)	D:\TRACE\spotREDO_2-26-24\spot_justBody_Motion_3_4-platform.trc
DataRate	CameraRate	NumFrames	NumMarkers	Units	OrigDataRate	OrigDataStartFrame	OrigNumFrames
100.00	100.00	      74	5	mm	100.00	6126	      7000
Frame#	Time	Left_Front			Right_Front			Left_Aft			Right_Aft			Post			
		X1	Y1	Z1	X2	Y2	Z2	X3	Y3	Z3	X4	Y4	Z4	X5	Y5	Z5	

6126	61.250	-710.99518	11.75294	-571.42755	703.92706	18.44138	-486.88879	-782.36395	-11.47194	647.16974	787.77881	-4.56137	650.85706	-1.54191	649.25568	-961.36041	
6127	61.260	-711.00342	11.66950	-571.47015	703.93878	18.31837	-486.93478	-782.37054	-11.35221	647.15955	787.78705	-4.44466	650.85626	-1.65287	649.13208	-961.61060	
6128	61.270	-711.05292	11.56292	-571.46729	703.85388	18.29503	-486.93588	-782.34717	-11.23577	647.15601	787.90009	-4.30686	650.91064	-1.72973	649.01434	-961.88098	
6129	61.280	-711.06439	11.50818	-571.48285	703.91467	18.18044	-486.99152	-782.35413	-11.38383	646.91321	787.98669	-4.24725	650.96991	-1.67423	648.86896	-962.04639	
6130	61.290	-711.11658	11.38710	-571.51099	703.92871	18.05942	-486.92807	-782.21887	-11.00315	647.15771	787.97913	-4.15693	650.91858	-1.73515	648.65143	-962.21112	
6131	61.300	-711.12451	11.31884	-571.54840	703.94232	17.91604	-487.03976	-782.15375	-10.89467	647.12598	787.96033	-4.10918	650.87616	-1.72413	648.43115	-962.32324	
6132	61.310	-711.17645	11.19846	-571.61859	703.93707	17.84607	-487.01660	-782.14038	-10.80559	647.12109	787.90607	-3.98848	650.88409	-1.75482	648.22314	-962.46613	
6133	61.320	-711.24487	11.07640	-571.68750	703.88184	17.74098	-487.07047	-782.19702	-10.64355	647.08740	787.85254	-3.88183	650.84882	-1.71907	648.04028	-962.63489	
6134	61.330	-711.29437	11.00812	-571.72473	703.83990	17.70487	-487.11209	-782.23279	-10.55620	647.05865	787.77399	-3.80566	650.83990	-1.70463	647.83087	-962.70190	
6135	61.340	-711.31128	10.90298	-571.80566	703.87378	17.62339	-487.17639	-782.26935	-10.48157	646.99384	787.72162	-3.71878	650.80737	-1.74459	647.62909	-962.85327	
6136	61.350	-711.34424	10.67828	-571.91907	703.85931	17.44115	-487.26224	-782.26855	-10.46623	646.99365	787.75061	-3.63131	650.81317	-1.68245	647.36432	-963.00024	
6137	61.360	-711.25049	10.45518	-571.99188	703.96210	17.08300	-487.17276	-782.16583	-10.40148	646.98480	787.93005	-3.38142	650.77026	-1.56396	647.20117	-963.11725	
6138	61.370	-711.04547	10.14926	-572.04962	704.20233	16.87401	-487.13846	-782.10223	-10.32180	646.89594	788.00299	-3.21261	650.69739	-1.26312	647.00702	-963.29614	
6139	61.380	-710.95074	10.03543	-572.09259	704.20349	16.80059	-487.23648	-782.09039	-10.12840	646.67181	788.31537	-2.88545	650.75891	-1.15147	646.84424	-963.48859	
6140	61.390	-710.77478	9.83178	-572.11377	704.23505	16.73781	-487.38589	-781.87390	-9.85762	646.54462	788.66840	-2.60923	650.66608	-1.01591	646.54395	-963.75525	
6141	61.400	-710.61987	9.70732	-572.13129	704.30402	16.63358	-487.56821	-781.70184	-9.51636	646.50598	788.71368	-2.41652	650.60785	-0.87859	646.17902	-964.14063	
6142	61.410	-710.49677	9.49297	-572.12830	704.35101	16.57222	-487.62869	-781.53009	-9.35764	646.40253	788.85223	-2.35656	650.51599	-0.93267	645.75684	-964.53290	
6143	61.420	-710.32373	9.34701	-572.14966	704.48615	16.47281	-487.76086	-781.42401	-9.32619	646.38879	788.87030	-2.30401	650.53058	-0.89622	645.58313	-964.63336	
6144	61.430	-710.40656	9.34501	-572.13892	704.51880	16.40873	-487.86359	-781.37573	-9.31645	646.34045	788.87982	-2.19749	650.51721	-0.71004	645.40546	-964.79755	
6145	61.440	-710.37415	9.31953	-572.19598	704.57275	16.24206	-487.82748	-781.28717	-9.19003	646.37189	788.93689	-1.99036	650.40106	-0.67113	645.22980	-965.04840	
6146	61.450	-710.28094	9.23497	-572.25702	704.64581	16.17606	-487.78741	-781.29193	-9.10981	646.30927	789.10907	-1.83290	650.36261	-0.50898	645.02722	-965.26251	
6147	61.460	-710.23706	9.13201	-572.29816	704.77008	15.96948	-487.77316	-781.28650	-8.94102	646.27997	789.05719	-1.61046	650.35272	-0.34915	644.69202	-965.50732	
6148	61.470	-710.12909	8.93939	-572.41046	705.06165	15.70031	-487.71527	-781.14288	-8.76488	646.19354	789.11609	-1.54681	650.30707	-0.29695	644.51923	-965.61951	
6149	61.480	-710.00732	8.80982	-572.43121	705.24799	15.55033	-487.71616	-781.03662	-8.60571	646.15826	789.20282	-1.44243	650.28552	-0.20138	644.39978	-965.75122	
6150	61.490	-709.89972	8.63506	-572.46942	705.43176	15.46238	-487.69135	-780.93628	-8.33607	646.17145	789.31470	-1.37398	650.25989	-0.01777	644.18042	-965.79156	
6151	61.500	-709.81409	8.53582	-572.50037	705.48364	15.32453	-487.74075	-780.80383	-8.13357	646.12219	789.43359	-1.25435	650.23120	0.12661	643.93201	-965.90607	
6152	61.510	-709.64600	8.30051	-572.56818	705.54089	15.25325	-487.77704	-780.83417	-8.08845	646.02777	789.53735	-1.13489	650.18469	0.25391	643.64722	-966.10626	
6153	61.520	-709.51550	8.05199	-572.59662	705.60199	15.23148	-487.99768	-780.67322	-7.78407	646.02435	789.67767	-0.96381	650.13397	0.28622	643.38586	-966.22406	
6154	61.530	-709.39258	7.88707	-572.63470	705.74420	15.10013	-488.02509	-780.57092	-7.70142	646.01752	789.85651	-0.71791	650.07581	0.32289	643.14276	-966.47369	
6155	61.540	-709.29614	7.80701	-572.69543	705.79437	15.01443	-488.09781	-780.50330	-7.60369	646.09448	790.05652	-0.50520	650.01984	0.37420	642.86548	-966.68243	
6156	61.550	-709.13666	7.67030	-572.70959	705.82654	14.95957	-488.14923	-780.45074	-7.52781	646.02539	790.20197	-0.29492	649.94635	0.41624	642.65137	-967.05878	
6157	61.560	-709.03546	7.58709	-572.72650	705.92322	14.87225	-488.11127	-780.39081	-7.42485	645.96008	790.27069	-0.13620	649.92322	0.45677	642.52698	-967.24146	
6158	61.570	-708.96313	7.50281	-572.76184	705.99719	14.71768	-488.16138	-780.34631	-7.27844	645.93250	790.32788	-0.08937	649.87512	0.76145	642.39941	-967.17999	
6159	61.580	-708.87689	7.36291	-572.77051	706.01093	14.58979	-488.21881	-780.28979	-7.11142	645.93640	790.36749	0.00067	649.88690	0.88563	642.17377	-967.45209	
6160	61.590	-708.89404	7.34009	-572.82593	706.11304	14.57948	-488.21719	-780.19476	-7.16447	645.88605	790.39130	0.08178	649.85815	1.06584	642.00153	-967.54541	
6161	61.600	-708.79907	7.22475	-572.78094	706.28760	14.31717	-488.03363	-780.13037	-7.07620	645.92603	790.38684	0.19001	649.85657	1.13449	641.83673	-967.72144	
6162	61.610	-708.79138	7.16122	-572.79425	706.30573	14.31136	-488.08353	-780.04492	-7.00147	645.91766	790.55756	0.09446	649.77795	1.26830	641.67523	-967.76190	
6163	61.620	-708.77515	7.09054	-572.79840	706.32739	14.24954	-488.11349	-780.04059	-7.04789	645.86670	790.36194	0.29982	649.82086	1.33714	641.59576	-967.77545	
6164	61.630	-708.73407	7.01944	-572.81738	706.30524	14.21314	-488.15598	-780.04102	-6.99460	645.87274	790.31207	0.33706	649.83209	1.35737	641.45575	-967.82465	
6165	61.640	-708.72198	6.99498	-572.77161	706.36261	14.19920	-488.11740	-779.95099	-6.94457	645.77472	790.42822	0.38829	649.75598	1.06841	641.34271	-968.06927	
6166	61.650	-708.64709	6.94944	-572.78168	706.34784	14.19761	-488.17673	-779.94714	-6.90081	645.81580	790.42566	0.44719	649.82269	1.06151	641.27179	-968.04065	
6167	61.660	-708.45410	6.83958	-572.61279	706.37524	14.15600	-488.16873	-779.94122	-6.85176	645.84607	790.39014	0.46140	649.79938	1.03512	641.23505	-968.05219	
6168	61.670	-708.67065	6.87191	-572.84631	706.38654	14.14228	-488.19489	-779.92120	-6.83459	645.82733	790.41064	0.49557	649.80267	1.02855	641.19092	-968.03241	
6169	61.680	-708.67358	6.84612	-572.85327	706.30878	14.12493	-488.20886	-779.90833	-6.80131	645.79565	790.39337	0.49915	649.77521	1.03657	641.19592	-968.08606	
6170	61.690	-708.70093	6.88817	-572.84473	706.28375	14.13585	-488.22763	-779.90106	-6.76397	645.78992	790.35986	0.54432	649.77948	1.09001	641.17834	-968.13837	
6171	61.700	-708.69739	6.92849	-572.87292	706.31683	14.11905	-488.21753	-779.92078	-6.68371	645.77887	790.37726	0.55762	649.79706	1.20277	641.19092	-968.23175	
6172	61.710	-708.68817	6.89276	-572.82416	706.30463	14.16122	-488.19202	-779.96027	-6.65239	645.77313	790.35278	0.55153	649.78564	1.22700	641.17023	-968.24567	
6173	61.720	-708.68756	6.87880	-572.84869	706.38531	14.13537	-488.23099	-779.98914	-6.67321	645.72101	790.35541	0.56661	649.78125	1.22853	641.18158	-968.24249	
6174	61.730	-708.69537	6.85543	-572.84613	706.32660	14.13596	-488.20151	-779.94092	-6.67758	645.77856	790.33716	0.53831	649.79822	1.20256	641.20679	-968.26331	
6175	61.740	-708.65796	6.89419	-572.86243	706.27972	14.10917	-488.20905	-779.87952	-6.67922	645.78033	790.35077	0.54708	649.78229	1.20222	641.19592	-968.23834	
6176	61.750	-708.68079	6.89843	-572.84546	706.33319	14.14890	-488.18442	-779.94830	-6.47242	645.75598	790.35150	0.60471	649.78259	1.31931	641.15149	-968.19690	
6177	61.760	-708.76251	6.81520	-572.84863	706.23138	14.10897	-488.21664	-780.01031	-6.82346	645.73212	790.20154	0.88032	649.81097	0.72264	641.14984	-968.05853	
6178	61.770	-708.84601	6.85607	-572.86719	706.15942	14.05153	-488.26752	-780.14734	-6.75038	645.82770	790.29358	0.40678	649.71777	1.44178	640.96661	-968.02228	
6179	61.780	-709.00513	6.85375	-572.83771	705.99829	14.07784	-488.22061	-780.37939	-6.78186	645.76141	790.00311	0.51513	649.82751	1.34545	641.09003	-967.94287	
6180	61.790	-709.19623	6.93223	-572.86664	705.78583	14.08343	-488.22885	-780.53674	-7.05830	645.80493	789.83099	0.48847	649.83191	1.17444	641.15961	-967.88306	
6181	61.800	-709.37793	7.02937	-572.81506	705.48157	14.30880	-488.26416	-780.75757	-6.96394	645.83301	789.56665	0.44471	649.85895	0.99214	641.20721	-967.85413	
6182	61.810	-709.51111	7.03590	-572.76361	705.25958	14.43332	-488.21548	-780.91998	-6.95984	645.91278	789.47278	0.42997	649.87732	-0.19690	641.63416	-967.73016	
6183	61.820	-709.61157	7.13918	-572.74121	705.09137	14.58211	-488.16141	-781.11353	-7.13072	645.88293	789.32074	0.41710	649.91693	-0.36917	641.89392	-967.88666	
6184	61.830	-709.66089	7.20136	-572.79156	704.84125	14.62918	-488.18979	-781.23145	-7.20078	645.88123	789.21216	0.17898	649.85724	-0.51523	642.00623	-967.70032	
6185	61.840	-709.91736	7.33471	-572.78864	704.63342	14.72203	-488.18909	-781.45959	-7.50961	645.95093	788.54419	-0.07508	649.83685	-0.69960	642.19147	-967.54242	
6186	61.850	-710.26770	7.40796	-572.79486	704.51697	14.72254	-488.15256	-781.59308	-7.41702	645.98041	788.44922	-0.24437	649.88416	-1.00662	642.32104	-967.37061	
6187	61.860	-710.68475	7.63469	-572.73590	704.39899	14.81590	-488.03625	-781.85773	-7.53604	645.97681	788.15265	-0.35440	649.92548	-1.30322	642.55115	-967.03833	
6188	61.870	-711.00317	7.80390	-572.65491	704.18201	14.89548	-488.00864	-782.07336	-7.68853	645.99707	787.94495	-0.48493	649.97247	-2.09897	642.74835	-966.84558	
6189	61.880	-711.32910	8.02564	-572.62238	704.09125	14.94020	-487.76947	-782.47699	-7.80898	646.02374	787.81323	-0.56407	650.05804	-1.69383	642.86316	-966.54272	
6190	61.890	-711.49121	8.05677	-572.56445	703.68817	15.05207	-487.86740	-782.78271	-7.90442	645.97211	787.59460	-0.70347	650.13550	-2.42287	643.01154	-966.38611	
6191	61.900	-711.65527	8.17923	-572.50922	703.39404	15.06838	-487.90765	-782.91510	-8.04803	645.99658	787.33820	-0.72830	650.16217	-2.50333	643.23724	-966.16217	
6192	61.910	-711.82446	8.28500	-572.48096	702.97717	15.40562	-488.01385	-783.18811	-8.01707	646.09503	786.99274	-0.89631	650.28479	-2.81461	643.56866	-965.92151	
6193	61.920	-712.12164	8.38610	-572.45471	702.81573	15.54988	-487.93872	-783.54504	-8.16681	646.20477	786.81183	-0.98292	650.33594	-3.11221	643.80695	-965.95532	
6194	61.930	-712.42627	8.52081	-572.46130	702.30341	15.74602	-487.89850	-783.84521	-8.42809	646.29138	786.44556	-1.03034	650.39453	-3.36766	644.04590	-965.95795	
6195	61.940	-712.63037	8.58372	-572.47302	702.05737	15.79413	-487.76511	-784.12933	-8.55157	646.42059	786.09998	-1.22281	650.39813	-3.53244	644.26392	-965.94263	
6196	61.950	-713.10785	8.76968	-572.29895	701.74072	15.92398	-487.85596	-784.53259	-8.69453	646.34857	785.74005	-1.44159	650.34644	-3.77982	644.36700	-965.90204	
6197	61.960	-713.47565	8.91654	-572.29144	701.60614	15.83816	-487.66266	-784.69238	-8.57549	646.53094	785.20038	-1.79779	650.27911	-4.12640	644.61578	-965.60242	
6198	61.970	-713.84619	9.08986	-572.24146	701.34998	15.94352	-487.52206	-784.89532	-9.07342	646.46771	784.94324	-1.93059	650.34229	-4.33850	644.89990	-965.40491	
6199	61.980	-714.12231	9.25293	-572.21332	701.11932	16.11952	-487.51627	-785.31488	-9.14496	646.53009	784.89459	-1.98418	650.36487	-4.49719	645.31171	-965.01575	
